# xmcd CD database file
#
# Track frame offsets:
#	150
#	12692
#	46798
#	87242
#	108132
#	155725
#	190021
#
# Disc length: 2884 seconds
#
# Revision: 3
# Processed by: cddbd v1.4PL0 Copyright (c) Steve Scherf et al.
# Submitted via: Feurio! 1.65 - http://www.feurio.com
#
DISCID=4e0b4207
DTITLE=John Mayall - Ljubljana 1997 - Disc 1
DYEAR=1900
DGENRE=Blues
TTITLE0=Sen-Say-Shun
TTITLE1=It ain't safe
TTITLE2=All those heroes
TTITLE3=Dead city
TTITLE4=How can you live like that
TTITLE5=Stone cold deal
TTITLE6=I don't mind
EXTD=
EXTT0=
EXTT1=
EXTT2=
EXTT3=
EXTT4=
EXTT5=
EXTT6=
PLAYORDER=
